<svg id="Layer_1" data-name="Layer 1" xmlns="http://www.w3.org/2000/svg" viewBox="0 0 582.06 126.46"><defs><style>.cls-1{fill:#377dff;}.cls-2{fill:#80effe;}.cls-2,.cls-3{opacity:0.6;}.cls-3{fill:#3fc5fe;}.cls-4{fill:#fff;}</style></defs><path class="cls-1" d="M263.08,327.32H279.6l32.15,89.4H294l-7.37-22.65H255.08l-7.37,22.65H230.94ZM282,380.13l-11.19-34.72-11.3,34.72Z" transform="translate(-85.05 -320.25)"/><path class="cls-1" d="M322.42,398.76a22.47,22.47,0,0,0,7.05,4.89,23.11,23.11,0,0,0,9.72,1.94,18.7,18.7,0,0,0,7.75-1.34,4.54,4.54,0,0,0,2.92-4.42,6,6,0,0,0-.51-2.48,5.53,5.53,0,0,0-2.16-2.21,23.26,23.26,0,0,0-4.57-2.15,79.23,79.23,0,0,0-7.88-2.28,52.18,52.18,0,0,1-6.35-2.14,23.44,23.44,0,0,1-6.16-3.69,19.25,19.25,0,0,1-4.7-5.63,15.73,15.73,0,0,1-1.85-7.84,16.26,16.26,0,0,1,2.16-8.37,19.64,19.64,0,0,1,5.66-6.17,27.27,27.27,0,0,1,7.87-3.82,30.23,30.23,0,0,1,8.83-1.34,45.05,45.05,0,0,1,13.41,1.74,31.28,31.28,0,0,1,10,5.23l-7.75,11.13a25.33,25.33,0,0,0-15.63-5c-3.55,0-6,.55-7.43,1.67a5.06,5.06,0,0,0-2.09,4.09q0,3,3.49,4.62A62.44,62.44,0,0,0,345,378.79a45.34,45.34,0,0,1,8.2,2.68,22.36,22.36,0,0,1,6.22,4,16.63,16.63,0,0,1,4,5.69,20,20,0,0,1,1.39,7.84,16.86,16.86,0,0,1-2,8.25,19,19,0,0,1-5.53,6.23,27,27,0,0,1-8.13,4,34,34,0,0,1-9.84,1.4,43.32,43.32,0,0,1-15.12-2.48,25.14,25.14,0,0,1-10.8-7.3Z" transform="translate(-85.05 -320.25)"/><path class="cls-1" d="M425.58,408.41a32,32,0,0,1-9.91,7.5,29.78,29.78,0,0,1-13.34,2.82,36.19,36.19,0,0,1-13.59-2.41,27.33,27.33,0,0,1-10-6.84,30,30,0,0,1-6.22-10.59,40.88,40.88,0,0,1-2.16-13.67,35.62,35.62,0,0,1,2.35-12.94,33,33,0,0,1,6.54-10.65,30.92,30.92,0,0,1,23.12-9.92,31.31,31.31,0,0,1,13.22,2.75,30.5,30.5,0,0,1,10.16,7.44l-9.53,10.18a18.55,18.55,0,0,0-6-4.82,17.18,17.18,0,0,0-7.88-1.74,15.89,15.89,0,0,0-7.49,1.67,16.21,16.21,0,0,0-5.28,4.36,18.13,18.13,0,0,0-3.11,6.3,27,27,0,0,0-1,7.37,25.12,25.12,0,0,0,1,7.1,19.74,19.74,0,0,0,3.11,6.3,16.17,16.17,0,0,0,5.28,4.56,15.32,15.32,0,0,0,7.49,1.74,18.1,18.1,0,0,0,8.13-1.81,18.46,18.46,0,0,0,6.23-4.89Z" transform="translate(-85.05 -320.25)"/><path class="cls-1" d="M485.81,407.6l-2.1,2.21a25,25,0,0,1-5,3.82,36.93,36.93,0,0,1-8.25,3.62,39.36,39.36,0,0,1-12,1.61,32.19,32.19,0,0,1-13-2.54,29.24,29.24,0,0,1-10-7,30.76,30.76,0,0,1-6.36-10.79A41.72,41.72,0,0,1,427,384.55a36.83,36.83,0,0,1,2.22-12.94,31.9,31.9,0,0,1,6.23-10.38,28.75,28.75,0,0,1,21.79-9.52A27.94,27.94,0,0,1,471,354.86a26.09,26.09,0,0,1,9.09,8.24,34.64,34.64,0,0,1,5,11.53,56.61,56.61,0,0,1,1.53,13.14V390H442.1a13.48,13.48,0,0,0,1.46,6.3,15.81,15.81,0,0,0,3.81,4.83,16.91,16.91,0,0,0,5.34,3.08,17.27,17.27,0,0,0,5.91,1.07,28.89,28.89,0,0,0,7.56-.87,29.57,29.57,0,0,0,5.52-2,17.48,17.48,0,0,0,3.75-2.41c1-.85,1.72-1.54,2.22-2.08Zm-14.62-29a14,14,0,0,0-3.49-9.18,13.55,13.55,0,0,0-4.38-3.22,14,14,0,0,0-6.1-1.27,15.87,15.87,0,0,0-6.54,1.27,15.39,15.39,0,0,0-4.77,3.22,14,14,0,0,0-2.92,4.36,12.24,12.24,0,0,0-1,4.82Z" transform="translate(-85.05 -320.25)"/><path class="cls-1" d="M494.19,353.85h14.36l.38,7.11a35.1,35.1,0,0,1,2.73-2.82,21,21,0,0,1,3.81-2.74,22.37,22.37,0,0,1,5-2.08,22.81,22.81,0,0,1,6.35-.81q11.19,0,17,7t5.84,19v38.2h-15V378.65q0-6-3.11-9.31a10.63,10.63,0,0,0-8.07-3.29,13.12,13.12,0,0,0-5.72,1.28,13.42,13.42,0,0,0-4.57,3.55,17.23,17.23,0,0,0-3,5.29,19.15,19.15,0,0,0-1.08,6.5v34.05h-15Z" transform="translate(-85.05 -320.25)"/><path class="cls-1" d="M601.42,410.55a29.34,29.34,0,0,1-2.79,2.82,20.87,20.87,0,0,1-3.88,2.68,25.84,25.84,0,0,1-5,2,22.05,22.05,0,0,1-6.16.8,22.73,22.73,0,0,1-9.53-2.14,25.06,25.06,0,0,1-8.39-6.3,32.44,32.44,0,0,1-6-10.19,38.84,38.84,0,0,1-2.29-13.8,37.51,37.51,0,0,1,2-12.94,33.86,33.86,0,0,1,5.08-9.45,26.86,26.86,0,0,1,5.59-5.36,37.55,37.55,0,0,1,6.16-3.55,28.52,28.52,0,0,1,6-2,25.75,25.75,0,0,1,5.08-.61,45.78,45.78,0,0,1,4.83.21,31.53,31.53,0,0,1,3.43.53,17.57,17.57,0,0,1,2.79.87l2.92,1.21v-28h14.87v89.4H601.8Zm0-41a12.28,12.28,0,0,0-5-2.62,30,30,0,0,0-7.3-.73,13.74,13.74,0,0,0-7.37,1.81,18,18,0,0,0-5.08,4.75,21.49,21.49,0,0,0-3,6.24,25.36,25.36,0,0,0-1.08,7.44q0,8,3.81,13.4t11.06,5.36a12.74,12.74,0,0,0,6.48-1.54,13.15,13.15,0,0,0,4.32-3.95,17.11,17.11,0,0,0,2.41-5.3,21.6,21.6,0,0,0,.76-5.56Z" transform="translate(-85.05 -320.25)"/><path class="cls-1" d="M627.09,353.85h14.35l.39,7.91a30.72,30.72,0,0,1,2.6-2.95,20.18,20.18,0,0,1,3.75-2.94,22.6,22.6,0,0,1,5-2.28,20.77,20.77,0,0,1,6.54-.94,25,25,0,0,1,3.87.27,18.18,18.18,0,0,1,3.5.93l-3.05,14.88a13.71,13.71,0,0,0-3.11-.94,24,24,0,0,0-3.75-.26,16.13,16.13,0,0,0-5.85,1.07,13.69,13.69,0,0,0-4.82,3.08,14.86,14.86,0,0,0-3.24,4.83,15.7,15.7,0,0,0-1.21,6.3v33.91h-15Z" transform="translate(-85.05 -320.25)"/><path class="cls-2" d="M187.41,346.82a3.5,3.5,0,0,0-2.47-2.47,73.49,73.49,0,0,0-16.72-1.4c-20.92,0-33.47,11.19-42.83,25.94H104.27a10.65,10.65,0,0,0-8.69,5.37l-10,20a5.79,5.79,0,0,0-.51,2.17,4.86,4.86,0,0,0,4.86,4.86h21l-4.55,4.56a6.59,6.59,0,0,0,0,9.17l10.31,10.31a6.61,6.61,0,0,0,9.18,0l4.55-4.55v21.05a4.87,4.87,0,0,0,4.87,4.86,5.84,5.84,0,0,0,2.17-.51l20-10a10.63,10.63,0,0,0,5.37-8.69V406.34c14.71-9.39,25.94-22,25.94-42.78A71.84,71.84,0,0,0,187.41,346.82Z" transform="translate(-85.05 -320.25)"/><path class="cls-3" d="M193.41,340.82a3.5,3.5,0,0,0-2.47-2.47,73.49,73.49,0,0,0-16.72-1.4c-20.92,0-33.47,11.19-42.83,25.94H110.27a10.65,10.65,0,0,0-8.69,5.37l-10,20a5.79,5.79,0,0,0-.51,2.17,4.86,4.86,0,0,0,4.86,4.86h21l-4.55,4.56a6.59,6.59,0,0,0,0,9.17l10.31,10.31a6.61,6.61,0,0,0,9.18,0l4.55-4.55v21.05a4.87,4.87,0,0,0,4.87,4.86,5.84,5.84,0,0,0,2.17-.51l20-10a10.63,10.63,0,0,0,5.37-8.69V400.34c14.71-9.39,25.94-22,25.94-42.78A71.84,71.84,0,0,0,193.41,340.82Z" transform="translate(-85.05 -320.25)"/><ellipse class="cls-4" cx="99.45" cy="27.75" rx="17.68" ry="16.97"/><path class="cls-1" d="M209.83,324.64a4,4,0,0,0-2.8-2.81,83.88,83.88,0,0,0-19-1.58c-23.74,0-38,12.69-48.6,29.43h-24a12.1,12.1,0,0,0-9.86,6.09L94.25,378.49a6.56,6.56,0,0,0-.57,2.47,5.52,5.52,0,0,0,5.52,5.51h23.87l-5.17,5.17a7.5,7.5,0,0,0,0,10.41l11.71,11.7a7.49,7.49,0,0,0,10.41,0l5.17-5.16v23.88a5.52,5.52,0,0,0,5.52,5.52,6.76,6.76,0,0,0,2.46-.58l22.7-11.36a12,12,0,0,0,6.1-9.86v-24c16.69-10.65,29.44-24.93,29.44-48.55A81.63,81.63,0,0,0,209.83,324.64ZM182,358.88a9.2,9.2,0,1,1,9.2-9.2A9.2,9.2,0,0,1,182,358.88Z" transform="translate(-85.05 -320.25)"/></svg>