<svg id="Layer_1" data-name="Layer 1" xmlns="http://www.w3.org/2000/svg" viewBox="0 0 126.37 126.46"><defs><style>.cls-1{fill:#80effe;}.cls-1,.cls-2{opacity:0.6;}.cls-2{fill:#3fc5fe;}.cls-3{fill:#fff;}.cls-4{fill:#377dff;}</style></defs><path class="cls-1" d="M187.41,346.82a3.5,3.5,0,0,0-2.47-2.47,73.49,73.49,0,0,0-16.72-1.4c-20.92,0-33.47,11.19-42.83,25.94H104.27a10.65,10.65,0,0,0-8.69,5.37l-10,20a5.79,5.79,0,0,0-.51,2.17,4.86,4.86,0,0,0,4.86,4.86h21l-4.55,4.56a6.59,6.59,0,0,0,0,9.17l10.31,10.31a6.61,6.61,0,0,0,9.18,0l4.55-4.55v21.05a4.87,4.87,0,0,0,4.87,4.86,5.84,5.84,0,0,0,2.17-.51l20-10a10.63,10.63,0,0,0,5.37-8.69V406.34c14.71-9.39,25.94-22,25.94-42.78A71.84,71.84,0,0,0,187.41,346.82Z" transform="translate(-85.05 -320.25)"/><path class="cls-2" d="M193.41,340.82a3.5,3.5,0,0,0-2.47-2.47,73.49,73.49,0,0,0-16.72-1.4c-20.92,0-33.47,11.19-42.83,25.94H110.27a10.65,10.65,0,0,0-8.69,5.37l-10,20a5.79,5.79,0,0,0-.51,2.17,4.86,4.86,0,0,0,4.86,4.86h21l-4.55,4.56a6.59,6.59,0,0,0,0,9.17l10.31,10.31a6.61,6.61,0,0,0,9.18,0l4.55-4.55v21.05a4.87,4.87,0,0,0,4.87,4.86,5.84,5.84,0,0,0,2.17-.51l20-10a10.63,10.63,0,0,0,5.37-8.69V400.34c14.71-9.39,25.94-22,25.94-42.78A71.84,71.84,0,0,0,193.41,340.82Z" transform="translate(-85.05 -320.25)"/><ellipse class="cls-3" cx="99.45" cy="27.75" rx="17.68" ry="16.97"/><path class="cls-4" d="M209.83,324.64a4,4,0,0,0-2.8-2.81,83.88,83.88,0,0,0-19-1.58c-23.74,0-38,12.69-48.6,29.43h-24a12.1,12.1,0,0,0-9.86,6.09L94.25,378.49a6.56,6.56,0,0,0-.57,2.47,5.52,5.52,0,0,0,5.52,5.51h23.87l-5.17,5.17a7.5,7.5,0,0,0,0,10.41l11.71,11.7a7.49,7.49,0,0,0,10.41,0l5.17-5.16v23.88a5.52,5.52,0,0,0,5.52,5.52,6.76,6.76,0,0,0,2.46-.58l22.7-11.36a12,12,0,0,0,6.1-9.86v-24c16.69-10.65,29.44-24.93,29.44-48.55A81.63,81.63,0,0,0,209.83,324.64ZM182,358.88a9.2,9.2,0,1,1,9.2-9.2A9.2,9.2,0,0,1,182,358.88Z" transform="translate(-85.05 -320.25)"/></svg>